<mxfile>
  <diagram name="SmartFarm ERD" id="smartfarm-erd">
    <mxGraphModel dx="2000" dy="1600" grid="1" gridSize="10" guides="1" tooltips="1" connect="1" arrows="1" fold="1" page="1" pageScale="1" pageWidth="827" pageHeight="1169" math="0" shadow="0">
      <root>
        <mxCell id="0"/>
        <mxCell id="1" parent="0"/>
        <mxCell id="user" value="&lt;table&gt;&lt;tr&gt;&lt;td style=&quot;font-weight:bold;font-size:14px;background-color:#E0E0E0;text-align:center;&quot;&gt;User&lt;/td&gt;&lt;/tr&gt;&lt;tr&gt;&lt;td style=&quot;text-align:left;&quot;&gt;+id: String&lt;/td&gt;&lt;/tr&gt;&lt;tr&gt;&lt;td style=&quot;text-align:left;&quot;&gt;+fullName: String&lt;/td&gt;&lt;/tr&gt;&lt;tr&gt;&lt;td style=&quot;text-align:left;&quot;&gt;+email: String&lt;/td&gt;&lt;/tr&gt;&lt;tr&gt;&lt;td style=&quot;text-align:left;&quot;&gt;+role: String&lt;/td&gt;&lt;/tr&gt;&lt;tr&gt;&lt;td style=&quot;text-align:left;&quot;&gt;+status: String&lt;/td&gt;&lt;/tr&gt;&lt;/table&gt;" style="shape=table;html=1;whiteSpace=wrap;strokeColor=#000000;fillColor=#FFFFFF;fontSize=12;align=left;" vertex="1" parent="1">
          <mxGeometry x="60" y="40" width="220" height="200" as="geometry"/>
        </mxCell>
        <mxCell id="employee" value="&lt;table&gt;&lt;tr&gt;&lt;td style=&quot;font-weight:bold;font-size:14px;background-color:#E0E0E0;text-align:center;&quot;&gt;Employee&lt;/td&gt;&lt;/tr&gt;&lt;tr&gt;&lt;td style=&quot;text-align:left;&quot;&gt;+empId: String&lt;/td&gt;&lt;/tr&gt;&lt;tr&gt;&lt;td style=&quot;text-align:left;&quot;&gt;+jobTitle: String&lt;/td&gt;&lt;/tr&gt;&lt;tr&gt;&lt;td style=&quot;text-align:left;&quot;&gt;+department: String&lt;/td&gt;&lt;/tr&gt;&lt;tr&gt;&lt;td style=&quot;text-align:left;&quot;&gt;+basicSalary: Number&lt;/td&gt;&lt;/tr&gt;&lt;/table&gt;" style="shape=table;html=1;whiteSpace=wrap;strokeColor=#000000;fillColor=#FFFFFF;fontSize=12;align=left;" vertex="1" parent="1">
          <mxGeometry x="320" y="40" width="220" height="180" as="geometry"/>
        </mxCell>
        <mxCell id="paymentSlip" value="&lt;table&gt;&lt;tr&gt;&lt;td style=&quot;font-weight:bold;font-size:14px;background-color:#E0E0E0;text-align:center;&quot;&gt;PaymentSlip&lt;/td&gt;&lt;/tr&gt;&lt;tr&gt;&lt;td style=&quot;text-align:left;&quot;&gt;+slipId: String&lt;/td&gt;&lt;/tr&gt;&lt;tr&gt;&lt;td style=&quot;text-align:left;&quot;&gt;+employeeId: String&lt;/td&gt;&lt;/tr&gt;&lt;tr&gt;&lt;td style=&quot;text-align:left;&quot;&gt;+month: Number&lt;/td&gt;&lt;/tr&gt;&lt;tr&gt;&lt;td style=&quot;text-align:left;&quot;&gt;+year: Number&lt;/td&gt;&lt;/tr&gt;&lt;tr&gt;&lt;td style=&quot;text-align:left;&quot;&gt;+net: Number&lt;/td&gt;&lt;/tr&gt;&lt;/table&gt;" style="shape=table;html=1;whiteSpace=wrap;strokeColor=#000000;fillColor=#FFFFFF;fontSize=12;align=left;" vertex="1" parent="1">
          <mxGeometry x="580" y="40" width="220" height="210" as="geometry"/>
        </mxCell>
        <mxCell id="transaction" value="&lt;table&gt;&lt;tr&gt;&lt;td style=&quot;font-weight:bold;font-size:14px;background-color:#E0E0E0;text-align:center;&quot;&gt;Transaction&lt;/td&gt;&lt;/tr&gt;&lt;tr&gt;&lt;td style=&quot;text-align:left;&quot;&gt;+transaction_id: String&lt;/td&gt;&lt;/tr&gt;&lt;tr&gt;&lt;td style=&quot;text-align:left;&quot;&gt;+type: String&lt;/td&gt;&lt;/tr&gt;&lt;tr&gt;&lt;td style=&quot;text-align:left;&quot;&gt;+category: String&lt;/td&gt;&lt;/tr&gt;&lt;tr&gt;&lt;td style=&quot;text-align:left;&quot;&gt;+amount: Number&lt;/td&gt;&lt;/tr&gt;&lt;/table&gt;" style="shape=table;html=1;whiteSpace=wrap;strokeColor=#000000;fillColor=#FFFFFF;fontSize=12;align=left;" vertex="1" parent="1">
          <mxGeometry x="840" y="40" width="220" height="190" as="geometry"/>
        </mxCell>
        <mxCell id="crop" value="&lt;table&gt;&lt;tr&gt;&lt;td style=&quot;font-weight:bold;font-size:14px;background-color:#E0E0E0;text-align:center;&quot;&gt;Crop&lt;/td&gt;&lt;/tr&gt;&lt;tr&gt;&lt;td style=&quot;text-align:left;&quot;&gt;+cropName: String&lt;/td&gt;&lt;/tr&gt;&lt;tr&gt;&lt;td style=&quot;text-align:left;&quot;&gt;+plantingDate: Date&lt;/td&gt;&lt;/tr&gt;&lt;tr&gt;&lt;td style=&quot;text-align:left;&quot;&gt;+status: String&lt;/td&gt;&lt;/tr&gt;&lt;/table&gt;" style="shape=table;html=1;whiteSpace=wrap;strokeColor=#000000;fillColor=#FFFFFF;fontSize=12;align=left;" vertex="1" parent="1">
          <mxGeometry x="60" y="260" width="220" height="170" as="geometry"/>
        </mxCell>
        <mxCell id="applicationPlan" value="&lt;table&gt;&lt;tr&gt;&lt;td style=&quot;font-weight:bold;font-size:14px;background-color:#E0E0E0;text-align:center;&quot;&gt;ApplicationPlan&lt;/td&gt;&lt;/tr&gt;&lt;tr&gt;&lt;td style=&quot;text-align:left;&quot;&gt;+cropId: String&lt;/td&gt;&lt;/tr&gt;&lt;tr&gt;&lt;td style=&quot;text-align:left;&quot;&gt;+fieldId: String&lt;/td&gt;&lt;/tr&gt;&lt;tr&gt;&lt;td style=&quot;text-align:left;&quot;&gt;+productId: String&lt;/td&gt;&lt;/tr&gt;&lt;tr&gt;&lt;td style=&quot;text-align:left;&quot;&gt;+scheduleType: String&lt;/td&gt;&lt;/tr&gt;&lt;/table&gt;" style="shape=table;html=1;whiteSpace=wrap;strokeColor=#000000;fillColor=#FFFFFF;fontSize=12;align=left;" vertex="1" parent="1">
          <mxGeometry x="320" y="260" width="220" height="190" as="geometry"/>
        </mxCell>
        <mxCell id="field" value="&lt;table&gt;&lt;tr&gt;&lt;td style=&quot;font-weight:bold;font-size:14px;background-color:#E0E0E0;text-align:center;&quot;&gt;Field&lt;/td&gt;&lt;/tr&gt;&lt;tr&gt;&lt;td style=&quot;text-align:left;&quot;&gt;+fieldName: String&lt;/td&gt;&lt;/tr&gt;&lt;tr&gt;&lt;td style=&quot;text-align:left;&quot;&gt;+areaValue: Number&lt;/td&gt;&lt;/tr&gt;&lt;tr&gt;&lt;td style=&quot;text-align:left;&quot;&gt;+soilType: String&lt;/td&gt;&lt;/tr&gt;&lt;tr&gt;&lt;td style=&quot;text-align:left;&quot;&gt;+status: String&lt;/td&gt;&lt;/tr&gt;&lt;/table&gt;" style="shape=table;html=1;whiteSpace=wrap;strokeColor=#000000;fillColor=#FFFFFF;fontSize=12;align=left;" vertex="1" parent="1">
          <mxGeometry x="580" y="260" width="220" height="190" as="geometry"/>
        </mxCell>
        <mxCell id="product" value="&lt;table&gt;&lt;tr&gt;&lt;td style=&quot;font-weight:bold;font-size:14px;background-color:#E0E0E0;text-align:center;&quot;&gt;Product&lt;/td&gt;&lt;/tr&gt;&lt;tr&gt;&lt;td style=&quot;text-align:left;&quot;&gt;+name: String&lt;/td&gt;&lt;/tr&gt;&lt;tr&gt;&lt;td style=&quot;text-align:left;&quot;&gt;+sku: String&lt;/td&gt;&lt;/tr&gt;&lt;tr&gt;&lt;td style=&quot;text-align:left;&quot;&gt;+category: String&lt;/td&gt;&lt;/tr&gt;&lt;tr&gt;&lt;td style=&quot;text-align:left;&quot;&gt;+price: Number&lt;/td&gt;&lt;/tr&gt;&lt;tr&gt;&lt;td style=&quot;text-align:left;&quot;&gt;+unit: String&lt;/td&gt;&lt;/tr&gt;&lt;/table&gt;" style="shape=table;html=1;whiteSpace=wrap;strokeColor=#000000;fillColor=#FFFFFF;fontSize=12;align=left;" vertex="1" parent="1">
          <mxGeometry x="840" y="260" width="220" height="210" as="geometry"/>
        </mxCell>
        <mxCell id="cow" value="&lt;table&gt;&lt;tr&gt;&lt;td style=&quot;font-weight:bold;font-size:14px;background-color:#E0E0E0;text-align:center;&quot;&gt;Cow&lt;/td&gt;&lt;/tr&gt;&lt;tr&gt;&lt;td style=&quot;text-align:left;&quot;&gt;+cowId: String&lt;/td&gt;&lt;/tr&gt;&lt;tr&gt;&lt;td style=&quot;text-align:left;&quot;&gt;+name: String&lt;/td&gt;&lt;/tr&gt;&lt;tr&gt;&lt;td style=&quot;text-align:left;&quot;&gt;+breed: String&lt;/td&gt;&lt;/tr&gt;&lt;tr&gt;&lt;td style=&quot;text-align:left;&quot;&gt;+gender: String&lt;/td&gt;&lt;/tr&gt;&lt;tr&gt;&lt;td style=&quot;text-align:left;&quot;&gt;+bday: Date&lt;/td&gt;&lt;/tr&gt;&lt;/table&gt;" style="shape=table;html=1;whiteSpace=wrap;strokeColor=#000000;fillColor=#FFFFFF;fontSize=12;align=left;" vertex="1" parent="1">
          <mxGeometry x="60" y="480" width="220" height="210" as="geometry"/>
        </mxCell>
        <mxCell id="health" value="&lt;table&gt;&lt;tr&gt;&lt;td style=&quot;font-weight:bold;font-size:14px;background-color:#E0E0E0;text-align:center;&quot;&gt;Health&lt;/td&gt;&lt;/tr&gt;&lt;tr&gt;&lt;td style=&quot;text-align:left;&quot;&gt;+cowId: String&lt;/td&gt;&lt;/tr&gt;&lt;tr&gt;&lt;td style=&quot;text-align:left;&quot;&gt;+type: String&lt;/td&gt;&lt;/tr&gt;&lt;tr&gt;&lt;td style=&quot;text-align:left;&quot;&gt;+diagnosis: String&lt;/td&gt;&lt;/tr&gt;&lt;/table&gt;" style="shape=table;html=1;whiteSpace=wrap;strokeColor=#000000;fillColor=#FFFFFF;fontSize=12;align=left;" vertex="1" parent="1">
          <mxGeometry x="320" y="480" width="220" height="170" as="geometry"/>
        </mxCell>
        <mxCell id="order" value="&lt;table&gt;&lt;tr&gt;&lt;td style=&quot;font-weight:bold;font-size:14px;background-color:#E0E0E0;text-align:center;&quot;&gt;Order&lt;/td&gt;&lt;/tr&gt;&lt;tr&gt;&lt;td style=&quot;text-align:left;&quot;&gt;+orderNumber: String&lt;/td&gt;&lt;/tr&gt;&lt;tr&gt;&lt;td style=&quot;text-align:left;&quot;&gt;+customerName: String&lt;/td&gt;&lt;/tr&gt;&lt;tr&gt;&lt;td style=&quot;text-align:left;&quot;&gt;+totalPrice: Number&lt;/td&gt;&lt;/tr&gt;&lt;tr&gt;&lt;td style=&quot;text-align:left;&quot;&gt;+status: String&lt;/td&gt;&lt;/tr&gt;&lt;/table&gt;" style="shape=table;html=1;whiteSpace=wrap;strokeColor=#000000;fillColor=#FFFFFF;fontSize=12;align=left;" vertex="1" parent="1">
          <mxGeometry x="580" y="480" width="220" height="190" as="geometry"/>
        </mxCell>
        <mxCell id="orderItem" value="&lt;table&gt;&lt;tr&gt;&lt;td style=&quot;font-weight:bold;font-size:14px;background-color:#E0E0E0;text-align:center;&quot;&gt;OrderItem&lt;/td&gt;&lt;/tr&gt;&lt;tr&gt;&lt;td style=&quot;text-align:left;&quot;&gt;+orderId: String&lt;/td&gt;&lt;/tr&gt;&lt;tr&gt;&lt;td style=&quot;text-align:left;&quot;&gt;+productId: String&lt;/td&gt;&lt;/tr&gt;&lt;tr&gt;&lt;td style=&quot;text-align:left;&quot;&gt;+qty: Number&lt;/td&gt;&lt;/tr&gt;&lt;tr&gt;&lt;td style=&quot;text-align:left;&quot;&gt;+price: Number&lt;/td&gt;&lt;/tr&gt;&lt;/table&gt;" style="shape=table;html=1;whiteSpace=wrap;strokeColor=#000000;fillColor=#FFFFFF;fontSize=12;align=left;" vertex="1" parent="1">
          <mxGeometry x="840" y="480" width="220" height="190" as="geometry"/>
        </mxCell>
        <mxCell id="relUserEmployee" value="" style="edgeStyle=orthogonalEdgeStyle;rounded=0;html=1;startArrow=none;endArrow=none;strokeColor=#000000;" edge="1" parent="1" source="user" target="employee">
          <mxGeometry relative="1" as="geometry"/>
        </mxCell>
        <mxCell id="relEmployeePaymentSlip" value="" style="edgeStyle=orthogonalEdgeStyle;rounded=0;html=1;startArrow=none;endArrow=crow;endFill=0;strokeColor=#000000;" edge="1" parent="1" source="employee" target="paymentSlip">
          <mxGeometry relative="1" as="geometry"/>
        </mxCell>
        <mxCell id="relPaymentSlipTransaction" value="" style="edgeStyle=orthogonalEdgeStyle;rounded=0;html=1;startArrow=none;endArrow=crow;endFill=0;strokeColor=#000000;" edge="1" parent="1" source="paymentSlip" target="transaction">
          <mxGeometry relative="1" as="geometry"/>
        </mxCell>
        <mxCell id="relCropApplicationPlan" value="" style="edgeStyle=orthogonalEdgeStyle;rounded=0;html=1;startArrow=none;endArrow=crow;endFill=0;strokeColor=#000000;" edge="1" parent="1" source="crop" target="applicationPlan">
          <mxGeometry relative="1" as="geometry"/>
        </mxCell>
        <mxCell id="relFieldApplicationPlan" value="" style="edgeStyle=orthogonalEdgeStyle;rounded=0;html=1;startArrow=none;endArrow=crow;endFill=0;strokeColor=#000000;" edge="1" parent="1" source="field" target="applicationPlan">
          <mxGeometry relative="1" as="geometry"/>
        </mxCell>
        <mxCell id="relCowHealth" value="" style="edgeStyle=orthogonalEdgeStyle;rounded=0;html=1;startArrow=none;endArrow=crow;endFill=0;strokeColor=#000000;" edge="1" parent="1" source="cow" target="health">
          <mxGeometry relative="1" as="geometry"/>
        </mxCell>
        <mxCell id="relProductOrderItem" value="" style="edgeStyle=orthogonalEdgeStyle;rounded=0;html=1;startArrow=none;endArrow=crow;endFill=0;strokeColor=#000000;" edge="1" parent="1" source="product" target="orderItem">
          <mxGeometry relative="1" as="geometry"/>
        </mxCell>
        <mxCell id="relOrderOrderItem" value="" style="edgeStyle=orthogonalEdgeStyle;rounded=0;html=1;startArrow=none;endArrow=crow;endFill=0;strokeColor=#000000;" edge="1" parent="1" source="order" target="orderItem">
          <mxGeometry relative="1" as="geometry"/>
        </mxCell>
      </root>
    </mxGraphModel>
  </diagram>
</mxfile>
